<?xml version="1.0" standalone="no"?><!DOCTYPE svg PUBLIC "-//W3C//DTD SVG 1.1//EN" "http://www.w3.org/Graphics/SVG/1.1/DTD/svg11.dtd"><svg t="1550295578112" class="icon" style="" viewBox="0 0 1024 1024" version="1.1" xmlns="http://www.w3.org/2000/svg" p-id="3078" xmlns:xlink="http://www.w3.org/1999/xlink" width="32" height="32"><defs><style type="text/css"></style></defs><path d="M190.5 828.665c0 33.137-26.863 60-60 60H60c-33.137 0-60-26.863-60-60V389c0-33.137 26.863-60 60-60h70.5c33.137 0 60 26.863 60 60v439.665zM844 329H470a71.68 71.68 0 0 0-6.733 0.327A60.623 60.623 0 0 0 457 329h-18.065l96.351-96.35c27.727-27.727 27.728-72.682 0-100.409-27.729-27.728-72.685-27.727-100.409 0L234.566 332.55a71.265 71.265 0 0 0-8.682 10.542C212.813 354.098 204.5 370.575 204.5 389v439.665c0 33.137 26.863 60 60 60h317.795c39.602 0 71.705-32.161 71.705-71.833S621.896 745 582.295 745H645c35.347 0 64-28.951 64-64.666 0-33.487-25.189-61.027-57.468-64.334H684.5c40.041 0 72.5-32.459 72.5-72.5S724.541 471 684.5 471H844c39.212 0 71-31.788 71-71s-31.788-71-71-71z" fill="#2c2c2c" p-id="3079"></path><path d="M863.181 556.386c-20.083 0-39.679-3.67-58.245-10.909l14.531-37.268c13.915 5.426 28.623 8.177 43.714 8.177 66.382 0 120.387-54.005 120.387-120.386s-54.005-120.386-120.387-120.386c-29.29 0-57.516 10.641-79.477 29.962l-26.422-30.032c29.269-25.749 66.877-39.93 105.897-39.93 88.438 0 160.387 71.949 160.387 160.386s-71.949 160.386-160.385 160.386z" fill="#2c2c2c" p-id="3080"></path></svg>