<?xml version="1.0" standalone="no"?><!DOCTYPE svg PUBLIC "-//W3C//DTD SVG 1.1//EN" "http://www.w3.org/Graphics/SVG/1.1/DTD/svg11.dtd"><svg t="1550102796345" class="icon" style="" viewBox="0 0 1025 1024" version="1.1" xmlns="http://www.w3.org/2000/svg" p-id="972" xmlns:xlink="http://www.w3.org/1999/xlink" width="200.1953125" height="200"><defs><style type="text/css"></style></defs><path d="M712.142848 351.734784c5.1968 0 10.29632 0.09728 15.393792 0.340992C700.572672 205.267968 548.92544 92.868608 365.893632 92.868608c-202.099712 0-365.893632 137.005056-365.893632 306.019328 0 99.086336 56.297472 187.199488 143.623168 243.105792 1.128448 0.707584 3.355648 2.105344 3.355648 2.105344L111.613952 754.857984l132.277248-67.37408c0 0 4.13696 1.196032 6.222848 1.78688 36.371456 10.125312 75.316224 15.613952 115.780608 15.613952 8.257536 0 16.443392-0.31744 24.58624-0.761856-7.501824-23.257088-11.619328-47.745024-11.619328-73.010176C378.860544 476.821504 528.119808 351.734784 712.142848 351.734784L712.142848 351.734784zM493.217792 243.744768c28.381184 0 51.346432 22.254592 51.346432 49.757184 0 27.449344-22.965248 49.747968-51.346432 49.747968-28.403712 0-51.36896-22.298624-51.36896-49.747968C441.849856 265.99936 464.81408 243.744768 493.217792 243.744768L493.217792 243.744768zM238.568448 343.24992c-28.382208 0-51.369984-22.298624-51.369984-49.747968 0-27.501568 22.987776-49.757184 51.369984-49.757184 28.409856 0 51.423232 22.254592 51.423232 49.757184C289.99168 320.950272 266.978304 343.24992 238.568448 343.24992L238.568448 343.24992zM238.568448 343.24992" fill="#07ab1a" p-id="973"></path><path d="M405.771264 632.925184c0 142.787584 138.427392 258.542592 309.16608 258.542592 34.167808 0 67.05664-4.65408 97.792-13.231104 1.763328-0.468992 5.244928-1.522688 5.244928-1.522688l111.711232 56.961024-29.8496-93.577216c0 0 1.913856-1.201152 2.8416-1.78688 73.723904-47.233024 121.322496-121.64096 121.322496-205.385728 0-142.765056-138.37824-258.495488-309.062656-258.495488C544.197632 374.429696 405.771264 490.160128 405.771264 632.925184L405.771264 632.925184zM779.05408 543.880192c0-23.184384 19.408896-41.97888 43.378688-41.97888 24.019968 0 43.43296 18.794496 43.43296 41.97888 0 23.237632-19.412992 42.0608-43.43296 42.0608C798.462976 585.940992 779.05408 567.117824 779.05408 543.880192L779.05408 543.880192zM563.923968 543.880192c0-23.184384 19.437568-41.97888 43.409408-41.97888 23.995392 0 43.42784 18.794496 43.42784 41.97888 0 23.237632-19.433472 42.0608-43.42784 42.0608C583.361536 585.940992 563.923968 567.117824 563.923968 543.880192L563.923968 543.880192zM563.923968 543.880192" fill="#07ab1a" p-id="974"></path></svg>