<svg xmlns="http://www.w3.org/2000/svg" xmlns:xlink="http://www.w3.org/1999/xlink" width="200" height="200" class="icon" p-id="3219" t="1550189508710" version="1.1" viewBox="0 0 1024 1024"><defs><style type="text/css"/></defs><path fill="#fff" d="M280.346 568.699c-23.344 3.337-63.368 13.343-86.717 33.355-70.043 60.037-26.681 170.103 113.403 170.103 80.049 0 160.097-53.367 226.803-133.416-93.392-46.692-170.104-80.048-253.489-70.042z" p-id="3220"/><path fill="#fff" d="M320.37 828.857c-176.772 0-236.808-156.76-153.423-260.158 20.012-23.344 50.03-43.356 100.06-56.699 76.711-20.012 200.121 13.343 313.52 50.031 20.012-36.687 36.692-76.712 50.03-123.41H277.014v-36.687h183.441v-60.036H240.322V305.21h220.133v-93.392s0-16.675 16.68-16.675h86.718v106.729h216.796v36.687H563.853v63.373h176.771c-20.012 70.043-43.356 133.416-76.711 190.116 56.699 20.012 103.397 36.687 140.084 50.03 112.343 37.449 150.045 45.039 156.09 46.413V183.913c0-66-54-120-120-120H183.913c-66 0-120 54-120 120v656.174c0 66 54 120 120 120h656.174c66 0 120-54 120-120v-11.518c-13.775-5.908-236.543-101.54-352.873-156.472-76.717 96.723-180.11 156.76-286.844 156.76zM960.087 688.492v140.077l0.67 0.287V688.772c0.455 0 0.284-0.063-0.67-0.28z" p-id="3221"/></svg>