<svg xmlns="http://www.w3.org/2000/svg" xmlns:xlink="http://www.w3.org/1999/xlink" width="200" height="200" class="icon" p-id="4202" t="1550103031739" version="1.1" viewBox="0 0 1024 1024"><defs><style type="text/css"/></defs><path fill="#FFC716" d="M505.152 933.76c0 49.728-72.768 90.112-162.496 90.112s-162.368-40.384-162.368-90.112 72.768-89.984 162.496-89.984 162.496 40.384 162.496 90.112l-0.128-0.128z m175.488-89.984c-89.728 0-162.496 40.384-162.496 90.112S590.848 1024 680.64 1024s162.496-40.384 162.496-90.112-72.896-90.112-162.496-90.112z" p-id="4203"/><path fill="#37464F" d="M870.848 501.376s-12.16-12.224-25.408-24.448V333.44a333.44 333.44 0 1 0-666.88 0v143.424c-13.376 12.288-25.536 24.512-25.536 24.512-21.696 33.024-73.408 117.248-73.408 196.864s21.76 93.12 29.952 93.76 35.584-6.912 68.864-58.304c45.12 149.952 177.216 258.496 333.184 258.496 156.032 0 288.576-108.544 333.44-258.496 33.536 51.648 61.76 59.328 69.376 58.56 7.552-0.768 29.952-14.272 29.952-93.76s-51.712-163.904-73.344-196.544l-0.192-0.576z" p-id="4204"/><path fill="#FFF" d="M266.688 558.848c-2.56 19.392-3.776 38.912-3.648 58.432 0 182.144 113.408 330.176 253.312 330.176 139.968 0 253.376-147.584 253.376-330.176 0.064-19.52-1.28-39.04-3.904-58.432H266.688zM424.32 152.96c-36.672 0-67.264 40.832-67.264 91.2s30.08 91.264 67.264 91.264 67.264-40.896 67.264-91.264S461.504 152.96 424.32 152.96z m11.136 128.32c-13.568 0-24.448-16.768-24.448-37.376s11.008-37.44 24.448-37.44 24.512 16.704 24.512 37.376-11.072 37.44-24.512 37.44zM601.728 152.96c-36.672 0-67.264 40.832-67.264 91.2s30.08 91.264 67.264 91.264 67.264-40.896 67.264-91.264-30.08-91.2-67.264-91.2z m11.392 94.656a1.856 1.856 0 0 1-1.792 1.856 1.728 1.728 0 0 1-1.728-1.344 24.32 24.32 0 0 0-20.608-17.856 24.32 24.32 0 0 0-20.224 18.112 1.728 1.728 0 0 1-1.6 1.088 1.792 1.792 0 0 1-1.792-1.856v-3.072c0-20.672 11.008-37.376 24.448-37.376s24.512 16.768 24.512 37.376v3.2l-1.216-0.128z" p-id="4205"/><path fill="#FF3A2F" d="M248 540.48c-6.144 30.592-19.072 167.872-12.992 198.528 6.144 30.528 31.808 25.344 68.736 25.728s77.504 10.112 78.144-34.752 0.768-133.248 10.88-165.888c10.176-32.64-144.768-23.616-144.768-23.616z" p-id="4206"/><path fill="#DD2C00" d="M239.936 606.016l143.552 46.528c0-29.632 3.136-59.2 9.344-88.128 10.176-32.64-144.768-23.872-144.768-23.872a937.6 937.6 0 0 0-8.128 65.472z" p-id="4207"/><path fill="#FFC716" d="M512.64 462.272c111.872 0 202.88-40.768 202.88-65.92 0-19.072-90.752-38.72-202.624-38.72-111.936 0-202.624 17.728-202.624 38.72 0 23.872 90.688 65.92 202.624 65.92H512.64z" p-id="4208"/><path fill="#FF3A2F" d="M514.688 486.784s128.512 1.344 231.104-42.176c102.592-43.52 101.632-48.896 112.896-48.896s24.448 16.128 30.08 45.248c5.632 29.12 12.224 52.096-12.224 66.432-24.448 14.336-180.928 106.56-357.888 106.56h-8.832c-176.96 0-334.016-92.352-357.952-106.56-23.936-14.208-17.344-36.736-12.224-66.432 5.184-29.696 18.88-45.248 30.144-45.248s10.112 4.864 112.896 48.896c102.656 44.032 231.04 42.176 231.04 42.176h0.96z" p-id="4209"/></svg>